<svg xmlns="http://www.w3.org/2000/svg" version="1.1" viewBox="-16 -16 32 32">
	<!-- Creative Commons Zero CC0 1.0 License - 2021 - Andreas Heese -->
	<g id="icon-car-moving" style="stroke:black; stroke-width:1; stroke-linecap:round; stroke-linejoin:round; fill:silver">
		<path d="M10 6.3 L11 6.3 A1 1 0 0 0 12 5.3 L12 1 A1 1 0 0 0 11 0 L-6 0 C-7.2 -0.1 -7.2 -0.6 -7 -2 L-6 -6.3 L-9 -6.3 L-12 0 L-12 5.3 A1 1 0 0 0 -11 6.3 L-10 6.3" />
		<line x1="-6" y1="-6.3" x2="2" y2="-6.3"/>
		<line x1="2" y1="-6.3" x2="5" y2="0"/>
		<line x1="-4" y1="6.3" x2="4" y2="6.3"/>
		<circle cx="-7" cy="6" r="3" />
		<circle cx="7" cy="6" r="3" />
	</g>
</svg>
