<svg xmlns="http://www.w3.org/2000/svg" version="1.1" viewBox="-12 -16 24 32">
	<!-- Creative Commons Zero CC0 1.0 License - 2021 - Andreas Heese -->
	<g id="icon-car-production" style="stroke:black; stroke-width:1; fill:none; stroke-linecap:round; stroke-linejoin:round; fill:silver">
		<g id="factory">
			<path d="M-12 -8 A3 3 0 0 1 -9 -12 A2.6 2.6 0 0 1 -4 -13 A2.7 2.7 0 0 1 1 -13.5 A3 3 0 0 1 6 -13.5 A2 2 0 1 1 6.5 -10 A2.2 2.2 0 0 1 3 -10 A3.1 3.1 0 0 1 -1.5 -9 A3.8 3.8 0 0 1 -6 -9 A2 2 0 0 0 -9 -8" />
			<path d="M-10 9 L-13 9 L-13 -8 L-8 -8 L-8 -4.5 L9 -4.5 L 9 4" />
		</g>
		<g id="car">
			<path d="M12 10.3 L13 10.3 A1 1 0 0 0 14 9.3 L14 5 A1 1 0 0 0 13 4 L-4 4 C-5.2 3.9 -5.2 3.4 -5 2 L-4 -2.3 L-7 -2.3 L-10 4 L -10 9.3 A1 1 0 0 0 -9 10.3 L-8 10.3" />
			<line x1="-4" y1="-2.3" x2="4" y2="-2.3"/>
			<line x1="4" y1="-2.3" x2="7" y2="4"/>
			<line x1="-2" y1="10.3" x2="6" y2="10.3"/>
			<circle cx="-5" cy="10" r="3" />
			<circle cx="9" cy="10" r="3" />
		</g>
	</g>
</svg>
