<svg xmlns="http://www.w3.org/2000/svg" version="1.1" viewBox="-16 -16 32 32">
	<!-- Creative Commons Zero CC0 1.0 License - 2021 - Andreas Heese -->
	<g id="icon-hydrogen" style="stroke:black; stroke-width:1; fill:none; stroke-linecap:round; stroke-linejoin:round; fill:silver">
		<rect x="-12" y="-12" rx="5" ry="5" width="24" height="24" stroke="none"/>
		<path d="M-8 2 A2.5 2.5 0 0 1 -4.8 2 A2.5 2.5 0 0 0 -1.6 2 A2.5 2.5 0 0 1 1.6 2 A2.5 2.5 0 0 0 4.8 2 A2.5 2.5 0 0 1 8 2" />
		<path d="M-8 4 A2.5 2.5 0 0 1 -4.8 4 A2.5 2.5 0 0 0 -1.6 4 A2.5 2.5 0 0 1 1.6 4 A2.5 2.5 0 0 0 4.8 4 A2.5 2.5 0 0 1 8 4" />
		<circle cx="-5.5" cy="-3" r="2.5" />
		<line x1="-6.5" y1="-3" x2="-4.5" y2="-3"/>
		<circle cx="5.5" cy="-3" r="2.5" />
		<line x1="6.5" y1="-3" x2="4.5" y2="-3"/>
		<line x1="5.5" y1="-2" x2="5.5" y2="-4"/>
	</g>
</svg>
