<svg xmlns="http://www.w3.org/2000/svg" version="1.1" viewBox="-16 -16 32 32">
	<!-- Creative Commons Zero CC0 1.0 License - 2021 - Andreas Heese -->
	<g id="icon-factory" style="stroke:black; stroke-width:1; fill:none; stroke-linecap:round; stroke-linejoin:round; fill:silver">
		<path d="M-10 -8 A3 3 0 0 1 -7 -12 A2.6 2.6 0 0 1 -2 -13 A2.7 2.7 0 0 1 3 -13.5 A3 3 0 0 1 8 -13.5 A2 2 0 1 1 8.5 -10 A2.2 2.2 0 0 1 5 -10 A3.1 3.1 0 0 1 0.5 -9 A3.8 3.8 0 0 1 -4 -9 A2 2 0 0 0 -7 -8" />
		<path d="M-11 9 L-11 -8 L-6 -8 L-6 -4.5 L11 -4.5 L11 9 Z" />
		<rect x="-6" y="-1" width="2.5" height="6" />
		<rect x="-1.25" y="-1" width="2.5" height="6" />
		<rect x="3.5" y="-1" width="2.5" height="6" />
	</g>
</svg>
