<svg xmlns="http://www.w3.org/2000/svg" version="1.1" viewBox="-16 -16 32 32">
	<!-- Creative Commons Zero CC0 1.0 License - 2021 - Andreas Heese -->
	<g id="icon-component-production" style="stroke:black; stroke-width:1; stroke-linecap:round; stroke-linejoin:round; fill:silver">
		<g id="factory">
			<path d="M-12 -8 A3 3 0 0 1 -9 -12 A2.6 2.6 0 0 1 -4 -13 A2.7 2.7 0 0 1 1 -13.5 A3 3 0 0 1 6 -13.5 A2 2 0 1 1 6.5 -10 A2.2 2.2 0 0 1 3 -10 A3.1 3.1 0 0 1 -1.5 -9 A3.8 3.8 0 0 1 -6 -9 A2 2 0 0 0 -9 -8" />
			<path id="factory-background" d="M-6 9 L-13 9 L-13 -8 L-8 -8 L-8 -4.5 L9 -4.5 L9 9 Z"/>
			<path d="M-6 9 L-13 9 L-13 -8 L-8 -8 L-8 -4.5 L5 -4.5" style="fill:none" />
			<path d="M7.4 -4.5 L9 -4.5 L 9 -2.2" style="fill:none" />
			<path d="M9 0.9 L9 5" style="fill:none" />
		</g>
		<g id="components">
			<defs>
				<path id="puzzle" d="M0 0 L3 0 L3 1.2 A1.8 1.8 0 1 0 5 1.2 L 5 0 L8 0 L8 8 L0 8 L0 5 L-1.2 5  A1.8 1.8 0 1 1 -1.2 3 L0 3 Z" />
			</defs>
			<use transform="translate(2,5)" href="#puzzle" />
			<use transform="translate(2,5) rotate(90)" href="#puzzle" />
			<use transform="translate(2,5) rotate(180)" href="#puzzle" />
			<use transform="translate(9,1) rotate(-125)" href="#puzzle" />
		</g>
	</g>
</svg>
