<svg xmlns="http://www.w3.org/2000/svg" version="1.1" viewBox="-16 -16 32 32">
	<!-- Creative Commons Zero CC0 1.0 License - 2021 - Andreas Heese -->
	<g id="icon-car-moving" style="stroke:black; stroke-width:1; fill:none; stroke-linecap:round; stroke-linejoin:round; fill:silver">
		<path d="M12 8.3 L13 8.3 A1 1 0 0 0 14 7.3 L14 3 A1 1 0 0 0 13 2 L-4 2 C-5.2 1.9 -5.2 1.4 -5 0 L-4 -4.3 L-7 -4.3 L-10 2 L -10 7.3 A1 1 0 0 0 -9 8.3 L-8 8.3" />
		<line x1="-4" y1="-4.3" x2="4" y2="-4.3"/>
		<line x1="4" y1="-4.3" x2="7" y2="2"/>
		<line x1="-2" y1="8.3" x2="6" y2="8.3"/>
		<circle cx="-5" cy="8" r="3" />
		<circle cx="9" cy="8" r="3" />
		<line x1="-15" y1="-4.3" x2="-9.1" y2="-4.3" />
		<line x1="-14" y1="-1.25" x2="-10.7" y2="-1.25" />
		<line x1="-13" y1="2" x2="-12.3" y2="2" />
	</g>
</svg>
