<svg xmlns="http://www.w3.org/2000/svg" version="1.1" viewBox="-12 -16 24 32">
	<!-- (c) 2021 Andreas Heese -->
	<g id="icon-barrel" style="stroke:black; stroke-width:1; fill:none; stroke-linecap:round; stroke-linejoin:round; fill:silver">
		<path d="M-9.5 1.1 L-9.5 9 A10 3.5 0 0 0 -10 10 A10 3.5 0 1 0 10 10 A10 3.5 0 0 0 9.5 9 L9.5 1.1" />
		<path d="M-9.5 -8.9 L-9.5 -1 A10 3.5 0 0 0 -10 0 A10 3.5 0 1 0 10 0 A10 3.5 0 0 0 9.5 -1 L9.5 -8.9" />
		<ellipse cx="0" cy="-10" rx="10" ry="3.5" />
		<ellipse cx="4" cy="-9.5" rx="2" ry="0.7" />
	</g>
</svg>
